<?xml version="1.0" encoding="UTF-8"?>
<svg width="400px" height="59px" viewBox="0 0 400 59" version="1.1" xmlns="http://www.w3.org/2000/svg" xmlns:xlink="http://www.w3.org/1999/xlink">
    <!-- Generator: Sketch 53.2 (72643) - https://sketchapp.com -->
    <title>Logo / </title>
    <desc>Created with Sketch.</desc>
    <g id="Logo-/-" stroke="none" stroke-width="1" fill="none" fill-rule="evenodd">
        <g id="Logo-/-Icon" transform="translate(-0.000170, 4.635600)" fill="#E03B4F">
            <path d="M34.6575703,44.3745 C29.2725703,44.3745 24.9075703,40.0095 24.9075703,34.6245 C24.9075703,29.2395 29.2725703,24.8745 34.6575703,24.8745 C40.0425703,24.8745 44.4085703,29.2395 44.4085703,34.6245 C44.4085703,40.0095 40.0425703,44.3745 34.6575703,44.3745 Z M57.5418703,54.127 C56.2688703,54.127 54.9738703,53.876 53.7298703,53.346 C48.7748703,51.238 46.4668703,45.512 48.5758703,40.556 C51.0098703,34.834 49.7498703,28.304 45.3618703,23.916 C39.4608703,18.012 29.8528703,18.015 23.9518703,23.917 C19.5658703,28.304 18.3038703,34.834 20.7398703,40.556 C22.8478703,45.512 20.5408703,51.238 15.5858703,53.346 C10.6288703,55.454 4.90287026,53.148 2.79587026,48.193 C-2.77012974,35.111 0.120870256,20.17 10.1628703,10.128 C23.6698703,-3.37499999 45.6468703,-3.37699999 59.1508703,10.128 C69.1948703,20.171 72.0858703,35.111 66.5178703,48.193 C64.9408703,51.902 61.3348703,54.127 57.5418703,54.127 Z" id="Combined-Shape"></path>
        </g>
        <path d="M111.113,13.9154 L111.113,13.9154 C100.182,13.9154 91.321,22.7774 91.321,33.7084 C91.321,44.6384 100.182,53.5004 111.113,53.5004 C115.78,53.5004 120.012,51.8174 123.396,49.1164 L123.396,52.6474 L130.906,52.6474 L130.906,33.2814 L130.863,33.2814 C130.631,22.5524 121.898,13.9154 111.113,13.9154 M111.113,45.9904 C104.34,45.9904 98.831,40.4804 98.831,33.7084 C98.831,26.9354 104.341,21.4254 111.113,21.4254 C117.886,21.4254 123.396,26.9354 123.396,33.7084 C123.396,40.4804 117.885,45.9904 111.113,45.9904" id="Fill-6" fill="#2B3033"></path>
        <path d="M213.7384,33.7084 C213.7384,40.4804 208.2274,45.9904 201.4564,45.9904 C194.6834,45.9904 189.1734,40.4804 189.1734,33.7084 L189.1734,15.2654 L181.6634,15.2654 L181.6634,33.7084 C181.6634,44.6394 190.5244,53.5004 201.4564,53.5004 C212.3864,53.5004 221.2484,44.6394 221.2484,33.7084 L221.2484,15.2654 L213.7384,15.2654 L213.7384,33.7084 Z" id="Fill-8" fill="#2B3033"></path>
        <path d="M248.1359,13.9154 C237.2049,13.9154 228.3439,22.7774 228.3439,33.7084 L228.3439,52.1504 L235.8539,52.1504 L235.8539,33.7084 C235.8539,26.9354 241.3649,21.4254 248.1359,21.4254 C254.9079,21.4254 260.4179,26.9354 260.4179,33.7084 L260.4179,52.1504 L267.9279,52.1504 L267.9279,33.7084 C267.9279,22.7774 259.0669,13.9154 248.1359,13.9154" id="Fill-10" fill="#2B3033"></path>
        <path d="M157.7926,21.4256 C162.5416,21.4256 166.6226,24.1636 168.6656,28.1166 L168.7136,28.0926 L174.6746,23.5066 C171.2056,17.7806 164.9766,13.9156 157.7926,13.9156 C146.8616,13.9156 138.0006,22.7766 138.0006,33.7086 C138.0006,44.6386 146.8616,53.5006 157.7926,53.5006 C164.9766,53.5006 171.2056,49.6346 174.6746,43.9096 L168.7136,39.3236 L168.6656,39.2986 C166.6226,43.2526 162.5416,45.9906 157.7926,45.9906 C151.0206,45.9906 145.5106,40.4806 145.5106,33.7086 C145.5106,26.9356 151.0206,21.4256 157.7926,21.4256" id="Fill-12" fill="#2B3033"></path>
        <path d="M350.4592,9.3421 C353.0382,9.3421 355.1302,7.2511 355.1302,4.6711 C355.1302,2.0911 353.0382,0.0001 350.4592,0.0001 C347.8792,0.0001 345.7882,2.0911 345.7882,4.6711 C345.7882,7.2511 347.8792,9.3421 350.4592,9.3421" id="Fill-14" fill="#2B3033"></path>
        <polygon id="Fill-16" fill="#2B3033" points="346.375 52.1498 354.543 52.1498 354.543 15.2648 346.375 15.2648"></polygon>
        <polygon id="Fill-18" fill="#2B3033" points="399.5178 15.2655 389.4198 15.2655 380.5778 26.8255 371.7348 15.2655 361.6368 15.2655 375.5298 33.7085 361.6368 52.1505 371.7348 52.1505 380.5778 40.5905 389.4198 52.1505 399.5178 52.1505 385.6248 33.7085"></polygon>
        <path d="M336.2639,22.7748 L336.2639,15.2648 L328.7859,15.2648 L328.7859,9.3418 L321.2759,9.8388 L321.2759,43.4708 C321.2759,48.0418 325.3849,52.1498 330.4519,52.1498 L336.2639,52.1498 L336.2639,44.6408 L330.4519,44.6408 C329.5339,44.6408 328.7859,43.8928 328.7859,42.9738 L328.7859,22.7748 L336.2639,22.7748 Z" id="Fill-19" fill="#2B3033"></path>
        <path d="M280.9445,19.7128 C273.2155,27.4428 273.2155,39.9738 280.9445,47.7038 C288.6735,55.4328 301.2055,55.4328 308.9355,47.7038 C311.2165,45.4218 312.7415,42.7008 313.6775,39.8278 L306.7315,37.1348 L306.6775,37.1188 C306.1215,39.0468 305.1415,40.8768 303.6245,42.3928 C299.7685,46.2498 293.9845,46.9448 289.3695,44.5888 L305.8215,28.1378 L307.0275,26.9318 L311.3225,22.6358 C310.6275,21.6088 309.8455,20.6228 308.9355,19.7128 C301.2065,11.9838 288.6735,11.9838 280.9445,19.7128 L280.9445,19.7128 Z M284.0585,39.2788 C281.7035,34.6638 282.3985,28.8798 286.2545,25.0228 C290.1125,21.1668 295.8955,20.4718 300.5105,22.8268 L284.0585,39.2788 Z" id="Fill-20" fill="#2B3033"></path>
    </g>
</svg>